<svg width="1180" height="260" viewBox="0 0 1180 260" fill="none" xmlns="http://www.w3.org/2000/svg">
<rect width="220" height="120" rx="6" fill="white"/>
<rect y="140" width="220" height="120" rx="6" fill="white"/>
<rect x="240" y="140" width="220" height="120" rx="6" fill="white"/>
<rect x="480" y="140" width="220" height="120" rx="6" fill="white"/>
<rect x="720" y="140" width="220" height="120" rx="6" fill="white"/>
<rect x="960" y="140" width="220" height="120" rx="6" fill="white"/>
<rect x="240" width="220" height="120" rx="6" fill="white"/>
<path d="M306.581 45H299.983C299.983 50.4303 297.498 55.3858 293.178 58.6499L290.574 60.6083L300.693 74.4362H309.007L299.687 61.7062C304.096 57.3145 306.581 51.3798 306.581 45Z" fill="#9FA0A2"/>
<path d="M289.746 45H283V74.4362H289.746V45Z" fill="#9FA0A2"/>
<path d="M317.322 45H310.961V74.4362H317.322V45Z" fill="#9FA0A2"/>
<path d="M373.121 53.5156C370.695 53.5156 368.387 54.2575 366.848 56.3643V54.0794H360.812V74.4355H366.937V63.753C366.937 60.667 369.008 59.1536 371.493 59.1536C374.156 59.1536 375.695 60.756 375.695 63.7233V74.4652H381.76V61.4978C381.76 56.75 378.003 53.5156 373.121 53.5156Z" fill="#9FA0A2"/>
<path d="M336.551 54.0794V55.3851C334.835 54.1981 332.764 53.5156 330.515 53.5156C324.598 53.5156 319.805 58.3227 319.805 64.2575C319.805 70.1922 324.598 74.9993 330.515 74.9993C332.764 74.9993 334.835 74.3168 336.551 73.1299V74.4355H342.616V54.0794H336.551ZM331.018 69.48C327.971 69.48 325.515 67.1358 325.515 64.2575C325.515 61.3791 327.971 59.0349 331.018 59.0349C334.066 59.0349 336.521 61.3791 336.521 64.2575C336.521 67.1358 334.066 69.48 331.018 69.48Z" fill="#9FA0A2"/>
<path d="M352.026 56.7191V54.0781H345.812V74.4342H352.055V64.9387C352.055 61.7339 355.517 60.0128 357.914 60.0128C357.943 60.0128 357.973 60.0128 357.973 60.0128V54.0781C355.517 54.0781 353.239 55.1464 352.026 56.7191Z" fill="#9FA0A2"/>
<path d="M400.637 54.0794V55.3851C398.921 54.1981 396.85 53.5156 394.601 53.5156C388.684 53.5156 383.891 58.3227 383.891 64.2575C383.891 70.1922 388.684 74.9993 394.601 74.9993C396.85 74.9993 398.921 74.3168 400.637 73.1299V74.4355H406.702V54.0794H400.637ZM395.104 69.48C392.057 69.48 389.601 67.1358 389.601 64.2575C389.601 61.3791 392.057 59.0349 395.104 59.0349C398.152 59.0349 400.607 61.3791 400.607 64.2575C400.637 67.1358 398.152 69.48 395.104 69.48Z" fill="#9FA0A2"/>
<path d="M411.407 54.674C411.407 54.3773 411.2 54.1992 410.875 54.1992H410.312V55.7422H410.579V55.1784H410.875L411.111 55.7422H411.407L411.141 55.1191C411.318 55.0301 411.407 54.8817 411.407 54.674ZM410.875 54.9114H410.579V54.4366H410.875C411.052 54.4366 411.141 54.5256 411.141 54.674C411.141 54.8224 411.082 54.9114 410.875 54.9114Z" fill="#9FA0A2"/>
<path d="M410.786 53.5469C409.987 53.5469 409.336 54.1997 409.336 55.0009C409.366 55.8021 409.987 56.4549 410.786 56.4549C411.585 56.4549 412.235 55.8021 412.235 55.0009C412.235 54.1997 411.585 53.5469 410.786 53.5469ZM410.786 56.1878C410.135 56.1878 409.632 55.6537 409.632 55.0009C409.632 54.3481 410.164 53.8139 410.786 53.8139C411.437 53.8139 411.94 54.3481 411.94 55.0009C411.94 55.6537 411.407 56.1878 410.786 56.1878Z" fill="#9FA0A2"/>
<path d="M413.184 67.2266C411.083 67.2266 409.367 68.9476 409.367 71.0545C409.367 73.1613 411.083 74.8823 413.184 74.8823C415.285 74.8823 417.001 73.1613 417.001 71.0545C417.001 68.918 415.285 67.2266 413.184 67.2266Z" fill="#9FA0A2"/>
<rect x="480" width="220" height="120" rx="6" fill="white"/>
<rect x="720" width="220" height="120" rx="6" fill="white"/>
<rect x="960" width="220" height="120" rx="6" fill="white"/>
<path fill-rule="evenodd" clip-rule="evenodd" d="M593.609 51.9651C592.435 50.9835 590.43 50.4933 587.595 50.4933H581.199V70.1342H585.981V63.9785H588.124C590.724 63.9785 592.63 63.4098 593.844 62.2714C595.21 60.9961 595.898 59.2979 595.898 57.1779C595.898 54.9795 595.135 53.2416 593.609 51.9651ZM588.005 59.5342H585.981V54.9376H587.799C590.01 54.9376 591.116 55.7083 591.116 57.2497C591.116 58.7712 590.078 59.5342 588.005 59.5342ZM604.081 50.4922H599.095V70.1331H609.861V65.6877H604.081V50.4922ZM619.631 50.4922L611.798 70.1331H617.167L618.194 67.2777H625L625.939 70.1331H631.368L623.59 50.4922H619.631ZM619.573 63.3016L621.627 56.5883L623.649 63.3016H619.573Z" fill="#9FA0A2"/>
<path fill-rule="evenodd" clip-rule="evenodd" d="M633.859 70.1305H638.847V50.4896H633.859V70.1305ZM658.211 54.1709C657.581 53.2631 656.772 52.4919 655.833 51.9041C654.328 50.9611 652.273 50.4907 649.672 50.4907H643.101V70.1305H650.788C653.566 70.1305 655.794 69.2284 657.477 67.422C659.159 65.6167 659.999 63.2207 659.999 60.2361C659.999 57.8621 659.403 55.8404 658.211 54.1709ZM650.23 65.6841H648.089V54.9361H650.26C651.786 54.9361 652.958 55.4109 653.78 56.3572C654.602 57.3034 655.013 58.6461 655.013 60.3841C655.013 63.9174 653.419 65.6841 650.23 65.6841ZM540.708 34L524.544 38.2069L520.09 54.3597L525.661 60.044L520 65.6344L524.192 81.8579L540.286 86.3265L545.948 80.735L551.519 86.4181L567.682 82.2112L572.136 66.0573L566.566 60.3752L572.227 54.7848L568.034 38.5602L551.939 34.0916L546.279 39.682L540.708 34ZM530.789 41.314L539.303 39.0968L543.027 42.8952L537.597 48.257L530.789 41.314ZM549.48 42.946L553.263 39.2106L561.741 41.5646L554.822 48.3961L549.48 42.946ZM525.191 53.0336L527.537 44.526L534.342 51.469L528.913 56.8309L525.191 53.0325V53.0336ZM558.021 51.6611L564.94 44.8275L567.147 53.3737L563.364 57.1102L558.021 51.6611ZM540.797 51.5209L546.227 46.1591L551.568 51.6092L546.139 56.9711L540.797 51.5209ZM532.114 60.0948L537.543 54.7329L542.888 60.1831L537.457 65.5449L532.114 60.0948ZM549.34 60.235L554.769 54.8732L560.111 60.3233L554.681 65.6852L549.34 60.235ZM525.078 67.0444L528.862 63.3068L534.203 68.7581L527.287 75.5884L525.078 67.0444ZM540.657 68.8089L546.087 63.447L551.429 68.8972L546 74.259L540.657 68.8089ZM557.881 68.9502L563.311 63.5884L567.034 67.3856L564.69 75.8932L557.881 68.9502ZM530.486 78.8546L537.403 72.0209L542.748 77.471L538.963 81.2086L530.486 78.8546ZM549.2 77.5229L554.629 72.1611L561.436 79.1052L552.922 81.3213L549.2 77.5229Z" fill="#9FA0A2"/>
<path d="M875.262 69.918C876.27 69.918 877.088 69.0864 877.088 68.0606C877.088 67.0347 876.27 66.2031 875.262 66.2031C874.254 66.2031 873.438 67.0347 873.438 68.0606C873.438 69.0864 874.254 69.918 875.262 69.918Z" fill="#9FA0A2"/>
<path d="M770.265 69.4301C769.449 69.088 768.728 68.5992 768.2 67.9637C767.624 67.3283 767.191 66.5951 766.855 65.7641C766.519 64.9332 766.375 64.0045 766.375 63.0269C766.375 62.0493 766.519 61.1206 766.807 60.2896C767.095 59.4586 767.528 58.6766 768.104 58.09C768.68 57.4546 769.353 56.9658 770.121 56.6236C770.938 56.2815 771.802 56.0859 772.811 56.0859C773.675 56.0859 774.396 56.1837 775.068 56.4281C775.741 56.6725 776.317 57.0147 776.845 57.4057C777.374 57.7967 777.758 58.3344 778.046 58.921C778.382 59.5075 778.574 60.1918 778.67 60.8762H775.308C775.212 60.2896 774.924 59.8008 774.492 59.4098C774.06 59.0187 773.531 58.8232 772.907 58.8232C771.85 58.8232 771.082 59.2142 770.553 59.9474C770.025 60.6806 769.785 61.7071 769.785 62.978C769.785 64.2489 770.025 65.2265 770.553 66.0085C771.034 66.7906 771.85 67.1328 772.907 67.1328C773.627 67.1328 774.204 66.9373 774.636 66.5951C775.068 66.2041 775.356 65.6664 775.5 64.8843H778.863C778.814 65.5686 778.622 66.2529 778.334 66.8395C778.046 67.4261 777.662 67.9637 777.134 68.4525C776.653 68.8925 776.029 69.2835 775.356 69.5279C774.636 69.7723 773.868 69.9189 773.003 69.9189C771.994 69.9678 771.082 69.7723 770.265 69.4301Z" fill="#9FA0A2"/>
<path d="M784.242 58.0894C784.722 57.4051 785.25 56.8674 785.827 56.5252C786.403 56.1831 787.123 55.9875 788.036 55.9875C788.708 55.9875 789.333 56.1342 789.861 56.3786C790.389 56.623 790.87 56.9651 791.254 57.4051C791.638 57.845 791.926 58.3826 792.166 58.9692C792.407 59.5558 792.503 60.2401 792.503 60.9733V69.5761H789.045V61.4621C789.045 60.7289 788.852 60.1423 788.468 59.7024C788.084 59.2625 787.508 59.0181 786.787 59.0181C786.019 59.0181 785.394 59.3114 784.914 59.849C784.434 60.3867 784.146 61.1199 784.146 62.0486V69.5761H780.688V51.1484H784.146V58.0894H784.242Z" fill="#9FA0A2"/>
<path d="M798.17 69.4282C797.354 69.0861 796.634 68.5973 796.057 67.9618C795.481 67.3264 795.049 66.5932 794.76 65.7134C794.472 64.8335 794.328 63.9537 794.328 62.9761C794.328 61.9985 794.472 61.0698 794.808 60.2388C795.145 59.4079 795.577 58.6747 796.105 58.0392C796.682 57.4038 797.354 56.915 798.122 56.5728C798.891 56.2307 799.755 56.0352 800.716 56.0352C801.773 56.0352 802.685 56.2307 803.454 56.6217C804.27 57.0127 804.895 57.5504 805.471 58.2347C805.999 58.9191 806.431 59.7989 806.72 60.7276C807.008 61.7052 807.152 62.7806 807.152 63.9537H797.738C797.882 64.9802 798.218 65.8111 798.747 66.3977C799.275 66.9842 800.044 67.2775 801.052 67.2775C801.725 67.2775 802.253 67.1309 802.685 66.8376C803.069 66.5443 803.406 66.1533 803.55 65.6645H806.96C806.864 66.251 806.624 66.7887 806.335 67.3264C805.999 67.8641 805.615 68.304 805.135 68.695C804.654 69.0861 804.03 69.4282 803.358 69.6237C802.685 69.8681 801.917 69.9659 801.1 69.9659C799.996 69.9659 799.035 69.7704 798.17 69.4282ZM798.699 59.4567C798.218 59.9455 797.93 60.6787 797.738 61.5097H803.502C803.454 60.6787 803.166 59.9944 802.685 59.4567C802.205 58.9191 801.533 58.6747 800.764 58.6747C799.851 58.7235 799.179 58.9679 798.699 59.4567Z" fill="#9FA0A2"/>
<path d="M812.293 69.4301C811.476 69.088 810.756 68.5992 810.228 67.9637C809.651 67.3283 809.219 66.5951 808.883 65.7641C808.546 64.9332 808.402 64.0045 808.402 63.0269C808.402 62.0493 808.546 61.1206 808.835 60.2896C809.123 59.4586 809.555 58.6766 810.131 58.09C810.708 57.4546 811.38 56.9658 812.149 56.6236C812.965 56.2815 813.83 56.0859 814.838 56.0859C815.703 56.0859 816.423 56.1837 817.096 56.4281C817.768 56.6725 818.344 57.0147 818.873 57.4057C819.401 57.7967 819.785 58.3344 820.073 58.921C820.41 59.5075 820.602 60.1918 820.698 60.8762H817.336C817.24 60.2896 816.952 59.8008 816.519 59.4098C816.087 59.0187 815.559 58.8232 814.934 58.8232C813.878 58.8232 813.109 59.2142 812.581 59.9474C812.053 60.6806 811.812 61.7071 811.812 62.978C811.812 64.2489 812.053 65.2265 812.581 66.0085C813.061 66.7906 813.878 67.1328 814.934 67.1328C815.655 67.1328 816.231 66.9373 816.663 66.5951C817.096 66.2041 817.384 65.6664 817.528 64.8843H820.842C820.794 65.5686 820.602 66.2529 820.314 66.8395C820.025 67.4261 819.641 67.9637 819.113 68.4525C818.633 68.8925 818.008 69.2835 817.336 69.5279C816.615 69.7723 815.847 69.9189 814.982 69.9189C814.022 69.9678 813.109 69.7723 812.293 69.4301Z" fill="#9FA0A2"/>
<path d="M826.176 65.1281V69.5761H822.766V51.1484H826.176V61.3643L830.787 56.3786H834.917L830.114 61.4132L835.493 69.5761H831.315L827.665 63.5639L826.176 65.1281Z" fill="#9FA0A2"/>
<path d="M839.284 69.4301C838.468 69.088 837.748 68.5992 837.123 67.9637C836.547 67.3283 836.067 66.5951 835.73 65.7641C835.394 64.9332 835.25 64.0045 835.25 63.0269C835.25 62.0493 835.394 61.1206 835.73 60.2896C836.067 59.4586 836.547 58.6766 837.123 58.09C837.7 57.4546 838.42 56.9658 839.284 56.6236C840.101 56.2815 841.013 56.0859 842.022 56.0859C843.031 56.0859 843.943 56.2815 844.76 56.6236C845.576 56.9658 846.297 57.4546 846.921 58.09C847.497 58.7254 847.978 59.4586 848.314 60.2896C848.65 61.1206 848.794 62.0493 848.794 63.0269C848.794 64.0045 848.65 64.9332 848.314 65.7641C847.978 66.5951 847.497 67.3772 846.921 67.9637C846.345 68.5992 845.624 69.088 844.76 69.4301C843.943 69.7723 843.031 69.9678 842.022 69.9678C841.013 69.9678 840.101 69.7723 839.284 69.4301ZM844.472 66.1063C845.048 65.3242 845.336 64.2978 845.336 62.978C845.336 61.6582 845.048 60.6318 844.472 59.8497C843.895 59.0676 843.079 58.6277 842.022 58.6277C840.965 58.6277 840.149 59.0187 839.573 59.8497C838.996 60.6318 838.708 61.7071 838.708 62.978C838.708 64.2489 838.996 65.3242 839.573 66.1063C840.149 66.8884 840.965 67.2794 842.022 67.2794C843.079 67.2794 843.895 66.8884 844.472 66.1063Z" fill="#9FA0A2"/>
<path d="M858.879 68.0123H858.783C858.351 68.5989 857.823 69.0877 857.294 69.4298C856.718 69.772 855.998 69.9186 855.085 69.9186C853.644 69.9186 852.539 69.4787 851.723 68.6477C850.954 67.7679 850.57 66.6437 850.57 65.1773V56.3789H853.98V64.5907C853.98 65.3728 854.172 65.9594 854.509 66.3504C854.845 66.7414 855.421 66.9858 856.142 66.9858C856.958 66.9858 857.583 66.6926 858.063 66.1549C858.543 65.6172 858.783 64.884 858.783 64.0042V56.3789H862.241V69.5765H858.927V68.0123H858.879Z" fill="#9FA0A2"/>
<path d="M865.558 56.3774V52.2227H868.92V56.3774H871.13V58.6748H868.92V65.6646C868.92 66.1534 869.016 66.4956 869.257 66.6911C869.497 66.8866 869.785 66.9844 870.217 66.9844H870.89C870.986 66.9844 871.13 66.9844 871.226 66.9355V69.575C871.034 69.575 870.89 69.6239 870.649 69.6239C870.457 69.6239 870.217 69.6728 869.977 69.6728H869.064C868.632 69.6728 868.248 69.6239 867.816 69.5261C867.383 69.4284 867.047 69.2817 866.711 69.0373C866.375 68.7929 866.087 68.4508 865.895 68.0597C865.702 67.6687 865.558 67.131 865.558 66.4956V58.6748H863.781V56.3774H865.558Z" fill="#9FA0A2"/>
<path d="M882.082 69.3795C881.362 69.0373 880.737 68.5485 880.209 67.9131C879.681 67.2776 879.296 66.5444 879.056 65.7135C878.816 64.8825 878.672 63.9538 878.672 62.9273C878.672 61.9008 878.816 61.021 879.056 60.1412C879.344 59.3102 879.729 58.5281 880.209 57.9416C880.737 57.3061 881.362 56.8173 882.082 56.4752C882.802 56.133 883.667 55.9375 884.628 55.9375C886.068 55.9375 887.269 56.3285 888.182 57.0617C889.094 57.7949 889.671 58.8703 889.911 60.2389H888.374C888.182 59.2613 887.797 58.4792 887.125 57.9904C886.501 57.5016 885.684 57.2573 884.676 57.2573C883.907 57.2573 883.283 57.4039 882.706 57.6972C882.178 57.9904 881.698 58.3815 881.362 58.9192C881.025 59.408 880.737 60.0434 880.593 60.7277C880.401 61.412 880.353 62.1452 880.353 62.9273C880.353 63.7094 880.449 64.4426 880.641 65.1269C880.833 65.8112 881.073 66.3978 881.458 66.9355C881.794 67.4731 882.274 67.8642 882.802 68.1575C883.331 68.4507 884.003 68.5974 884.724 68.5974C885.828 68.5974 886.741 68.2552 887.413 67.6198C888.086 66.9843 888.47 66.1045 888.614 65.0291H890.103C889.959 66.5444 889.43 67.7175 888.47 68.6463C887.557 69.5261 886.309 69.966 884.724 69.966C883.667 69.9171 882.802 69.7216 882.082 69.3795Z" fill="#9FA0A2"/>
<path d="M894.906 69.3795C894.137 69.0373 893.513 68.5485 892.985 67.9131C892.456 67.2776 892.072 66.5444 891.784 65.7135C891.496 64.8825 891.352 63.9538 891.352 62.9273C891.352 61.9008 891.496 61.021 891.784 60.1412C892.072 59.3102 892.456 58.5281 892.985 57.9416C893.513 57.3061 894.137 56.8173 894.906 56.4752C895.674 56.133 896.491 55.9375 897.451 55.9375C898.412 55.9375 899.228 56.133 899.997 56.4752C900.717 56.8173 901.39 57.3061 901.918 57.9416C902.446 58.577 902.831 59.3102 903.119 60.1412C903.407 60.9721 903.503 61.9008 903.503 62.9273C903.503 63.9538 903.359 64.8336 903.119 65.7135C902.831 66.5444 902.446 67.3265 901.918 67.9131C901.39 68.5485 900.765 69.0373 899.997 69.3795C899.276 69.7216 898.412 69.9171 897.451 69.9171C896.539 69.9171 895.674 69.7216 894.906 69.3795ZM899.373 68.1575C899.949 67.8642 900.381 67.4731 900.765 66.9355C901.15 66.3978 901.438 65.8112 901.582 65.1269C901.774 64.4426 901.87 63.7094 901.87 62.9273C901.87 62.1452 901.774 61.412 901.582 60.7277C901.39 60.0434 901.102 59.4568 900.765 58.9192C900.381 58.3815 899.949 57.9904 899.373 57.6972C898.796 57.4039 898.172 57.2573 897.451 57.2573C896.731 57.2573 896.058 57.4039 895.53 57.6972C895.002 57.9904 894.522 58.3815 894.137 58.9192C893.753 59.4568 893.465 60.0434 893.273 60.7277C893.081 61.412 892.985 62.1452 892.985 62.9273C892.985 63.7094 893.081 64.4426 893.273 65.1269C893.465 65.8112 893.753 66.3978 894.137 66.9355C894.522 67.4731 895.002 67.8642 895.53 68.1575C896.058 68.4507 896.731 68.5974 897.451 68.5974C898.172 68.5974 898.844 68.4507 899.373 68.1575Z" fill="#9FA0A2"/>
<path d="M907.296 56.2328V58.2369H907.344C907.776 57.5525 908.305 57.0149 908.929 56.5749C909.553 56.135 910.37 55.9395 911.33 55.9395C912.147 55.9395 912.867 56.135 913.492 56.5261C914.116 56.9171 914.548 57.5525 914.836 58.3346H914.885C915.317 57.5525 915.893 56.966 916.614 56.5261C917.334 56.0861 918.151 55.8906 919.063 55.8906C919.639 55.8906 920.12 55.9884 920.6 56.1839C921.08 56.3794 921.513 56.6238 921.849 56.966C922.185 57.3081 922.473 57.7481 922.665 58.2857C922.857 58.8234 922.953 59.41 922.953 60.0454V69.577H921.416V60.2409C921.416 59.2633 921.176 58.5301 920.648 58.0413C920.12 57.5525 919.447 57.357 918.679 57.357C918.199 57.357 917.718 57.4548 917.334 57.6014C916.902 57.7969 916.518 58.0413 916.229 58.3346C915.941 58.6279 915.653 59.0678 915.461 59.5077C915.269 59.9965 915.173 60.4853 915.173 61.0719V69.577H913.588V60.2409C913.588 59.2633 913.348 58.5301 912.819 58.0413C912.339 57.5525 911.715 57.357 910.946 57.357C910.466 57.357 910.034 57.4548 909.601 57.6503C909.169 57.8458 908.785 58.0902 908.401 58.4324C908.064 58.7745 907.776 59.1656 907.584 59.6544C907.392 60.0943 907.296 60.632 907.296 61.1696V69.577H905.711V56.2328H907.296Z" fill="#9FA0A2"/>
<path d="M753.409 63.0244L759.557 52.0754C759.701 51.831 759.701 51.5866 759.557 51.3422C759.413 51.1466 759.173 51 758.932 51H746.253C746.013 51 745.772 51.1466 745.628 51.3422L739.096 62.6334C738.952 62.8778 738.952 63.1711 739.096 63.3666L745.628 74.6578C745.772 74.9022 746.013 75 746.253 75H758.932C759.173 75 759.413 74.8534 759.557 74.6578C759.701 74.4134 759.701 74.169 759.557 73.9246L753.409 63.0244ZM752.593 61.558L747.501 52.4664H757.732L752.593 61.558ZM746.205 53.1996L751.728 63.0244L746.205 72.8493L740.537 63.0244L746.205 53.1996ZM747.501 73.5336L752.593 64.442L757.684 73.5336H747.501Z" fill="#9FA0A2"/>
<path d="M1090.88 55.7269C1088.46 53.6066 1085.55 52.5703 1082.18 52.5703C1078.86 52.5703 1075.95 53.6083 1073.53 55.7269C1071.12 57.8011 1069.89 60.6883 1069.89 64.3869C1069.89 68.0854 1071.12 70.971 1073.53 73.0912C1075.94 75.1655 1078.86 76.2034 1082.18 76.2034C1085.55 76.2034 1088.46 75.1655 1090.88 73.0912C1093.34 70.971 1094.56 68.0854 1094.56 64.3869C1094.56 60.6883 1093.33 57.8011 1090.88 55.7269ZM1077.63 69.1217C1076.36 67.9048 1075.72 66.3248 1075.72 64.3869C1075.72 62.4473 1076.35 60.869 1077.63 59.6964C1078.9 58.4794 1080.41 57.8931 1082.18 57.8931C1083.95 57.8931 1085.5 58.4794 1086.78 59.6964C1088.09 60.869 1088.73 62.4473 1088.73 64.3869C1088.73 66.3265 1088.1 67.9048 1086.78 69.1217C1085.5 70.2943 1083.95 70.8806 1082.18 70.8806C1080.41 70.8806 1078.91 70.2943 1077.63 69.1217Z" fill="#9FA0A2"/>
<path d="M1103.17 75.5694V44.6211H1097.44V75.5694H1103.17Z" fill="#9FA0A2"/>
<path d="M1121.69 53.2031V65.5515C1121.69 68.5273 1120.06 70.4993 1116.97 70.4993C1113.83 70.4993 1112.25 68.5291 1112.25 65.5515V53.2031H1106.5V66.4991C1106.5 71.6498 1109.78 76.2039 1116.97 76.2039H1117.02C1124.16 76.2039 1127.43 71.5492 1127.43 66.4991V53.2031H1121.69Z" fill="#9FA0A2"/>
<path d="M1063.79 53.2031L1058.05 68.3568L1052.32 53.2031H1046.22L1055.37 75.5733H1060.74L1069.89 53.2031H1063.79Z" fill="#9FA0A2"/>
<path d="M1046.25 63.7545C1046.25 60.5076 1045.2 57.8471 1043.15 55.7269C1041.1 53.6066 1038.47 52.5703 1035.23 52.5703C1031.91 52.5703 1029.09 53.6986 1026.76 55.9075C1024.49 58.1182 1023.35 60.9133 1023.35 64.3869C1023.35 67.8604 1024.49 70.7017 1026.72 72.9106C1029 75.1212 1031.73 76.2034 1034.96 76.2034C1039.92 76.2034 1043.43 74.0389 1045.56 69.6637L1041.29 67.2281C1039.88 69.979 1037.83 71.3323 1035.05 71.3323C1031.64 71.3323 1029.22 69.1678 1028.86 65.7402H1046.24V63.7545H1046.25ZM1035.05 56.8995C1038.28 56.8995 1040.42 58.7027 1040.96 61.59H1028.86C1029.72 58.9294 1032.09 56.8995 1035.05 56.8995Z" fill="#9FA0A2"/>
<path d="M1023.35 75.5704L1015.66 62.2217C1020.53 60.4628 1022.94 57.3966 1022.94 52.931C1022.94 47.4736 1018.57 44 1011.61 44H998V75.5704H1004.01V62.762H1009.11L1016.48 75.5704H1023.35ZM1011.61 49.2308C1015.16 49.2308 1016.93 50.6284 1016.93 53.3793C1016.93 56.1302 1015.16 57.5278 1011.61 57.5278H1004.01V49.2308H1011.61Z" fill="#9FA0A2"/>
<path d="M1137.16 76.2008C1133.47 76.2008 1130.47 73.2335 1130.47 69.5707V47.1562H1136.21V53.2085H1141.12V57.8087H1136.21V69.206C1136.21 70.2798 1137.09 71.149 1138.17 71.149H1141.12V76.2008H1137.16Z" fill="#9FA0A2"/>
<path d="M326.701 182V206.7C326.701 208.9 326.801 210.2 326.901 211.5H326.801C326.301 210 325.601 208.8 324.701 207.1L310.001 182H303.301V218.1H308.501V193.5C308.501 191.3 308.401 190 308.301 188.7H308.401C308.901 190.2 309.601 191.4 310.501 193.1L325.101 218.2H331.701V182H326.701Z" fill="#9FA0A2"/>
<path d="M386.098 194.102C381.798 194.102 378.698 196.102 377.198 199.002C377.198 192.002 379.598 186.002 385.398 186.002C389.098 186.002 390.498 188.102 391.298 191.602L396.598 190.502C395.298 184.502 391.498 181.602 385.398 181.602C377.698 181.602 371.898 187.502 371.898 200.802C371.898 212.602 376.698 218.502 384.998 218.502C391.898 218.502 396.998 213.802 396.998 206.102C396.998 200.102 393.798 194.102 386.098 194.102ZM384.998 214.202C380.698 214.202 377.798 210.302 377.298 205.102C378.598 200.702 381.498 198.502 384.898 198.502C389.298 198.502 391.698 201.702 391.698 206.302C391.698 211.202 388.898 214.202 384.998 214.202Z" fill="#9FA0A2"/>
<path d="M348.199 213.499C350.899 211.599 354.799 208.499 356.599 206.799C358.599 204.799 364.199 199.799 364.199 192.599C364.199 185.099 359.299 181.699 352.799 181.699C344.799 181.699 340.899 186.599 340.899 192.199C340.899 193.099 340.999 193.999 341.299 195.099L346.799 195.599C346.499 194.399 346.399 193.399 346.399 192.499C346.399 188.299 349.199 186.299 352.699 186.299C356.099 186.299 358.599 188.199 358.599 192.799C358.599 197.399 356.299 200.599 352.899 204.099C349.299 207.699 343.499 211.999 340.699 213.999V218.299H364.699V213.599H348.199V213.499Z" fill="#9FA0A2"/>
<path d="M332.1 227.602V232.302H303V227.602H332.1Z" fill="#9FA0A2"/>
<path d="M332.1 168V172.7H303V168H332.1Z" fill="#9FA0A2"/>
<path d="M615.353 188.853C612.785 188.853 610.804 189.766 608.967 191.672V189.297H603.922V212.667H609.35V199.113C609.35 196.01 611.202 194.047 614.012 194.047C614.523 194.047 614.97 194.11 615.289 194.173L619.056 189.233C617.587 188.98 616.311 188.853 615.353 188.853ZM662.159 189.297H655.9L650.122 196.92L644.343 189.296H638.085L646.914 201.072L638.085 212.667H644.471L650.09 205.274L655.709 212.667H662.159L653.27 201.091L662.159 189.297ZM548.177 184.04C546.325 186.51 545.878 187.333 544.09 187.333H517.398V219H527.871C530.234 219 532.532 217.86 534.001 215.96C535.917 213.427 536.172 212.667 538.024 212.667H564.78V181H554.243C551.88 181 549.582 182.14 548.176 184.04H548.177ZM556.478 204.497H545.303C542.876 204.497 540.642 205.51 539.173 207.473C537.257 210.007 536.874 210.767 535.086 210.767H525.636V195.567H536.811C539.237 195.567 541.472 194.427 542.941 192.527C544.857 190.057 545.367 189.297 547.091 189.297H556.478V204.497ZM596.579 196.707C598.943 195.377 600.602 193.033 600.602 189.93C600.602 185.37 597.091 181 591.982 181H576.657V212.667H591.982C597.537 212.667 601.368 208.74 601.368 203.8C601.368 200.887 600.028 198.353 596.579 196.707ZM582.084 185.94H591.535C593.897 185.94 595.302 188.157 595.302 190.12C595.302 192.527 593.195 194.173 591.216 194.173H582.084V185.94ZM591.216 207.727H582.084V199.113H591.535C593.962 199.113 595.941 201.203 595.941 203.357C595.941 205.763 593.451 207.727 591.216 207.727Z" fill="#9FA0A2"/>
<path d="M632.66 205.952C631.766 207.346 630.041 208.169 628.125 208.169C625.126 208.169 622.635 206.142 622.635 203.039H638.854C639.11 202.089 639.173 201.646 639.173 200.822C639.173 193.729 634.767 188.852 628.126 188.852C621.612 188.852 617.016 193.476 617.016 201.012C617.016 208.359 621.421 213.109 628.254 213.109C633.043 213.109 637.258 210.766 638.47 205.952H632.66ZM628.125 193.792C631.127 193.792 633.426 195.692 633.362 198.542H622.698C622.698 195.756 625.126 193.792 628.125 193.792Z" fill="#9FA0A2"/>
<path d="M869.956 221.057C869.771 221.057 869.621 220.907 869.621 220.723V180.508C869.621 180.35 869.732 180.213 869.887 180.181L876.875 178.73C877.082 178.687 877.277 178.845 877.277 179.057V220.723C877.277 220.907 877.128 221.057 876.943 221.057H869.956Z" fill="#9FA0A2"/>
<path d="M782.13 221.908C779.339 221.908 776.846 221.227 774.653 219.865C772.46 218.503 770.725 216.64 769.449 214.277C768.173 211.913 767.535 209.229 767.535 206.225C767.535 203.221 768.173 200.557 769.449 198.233C770.725 195.87 772.46 194.027 774.653 192.705C776.846 191.343 779.339 190.662 782.13 190.662C784.363 190.662 786.317 191.083 787.992 191.924C789.334 192.598 790.472 193.491 791.404 194.603C791.616 194.855 792.059 194.713 792.059 194.384V179.785C792.059 179.627 792.171 179.491 792.326 179.458L799.313 178.007C799.521 177.964 799.716 178.122 799.716 178.334V220.853C799.716 221.037 799.566 221.187 799.381 221.187H793.172C793.012 221.187 792.875 221.074 792.844 220.917L792.208 217.676C792.151 217.389 791.774 217.304 791.587 217.529C790.696 218.602 789.577 219.561 788.231 220.406C786.676 221.407 784.642 221.908 782.13 221.908ZM783.745 215.178C786.217 215.178 788.231 214.357 789.786 212.714C791.381 211.032 792.179 208.889 792.179 206.285C792.179 203.681 791.381 201.558 789.786 199.916C788.231 198.233 786.217 197.392 783.745 197.392C781.313 197.392 779.299 198.213 777.704 199.856C776.109 201.498 775.311 203.621 775.311 206.225C775.311 208.829 776.109 210.972 777.704 212.654C779.299 214.337 781.313 215.178 783.745 215.178Z" fill="#9FA0A2"/>
<path d="M818.384 221.914C815.394 221.914 812.742 221.273 810.429 219.991C808.116 218.709 806.302 216.906 804.986 214.583C803.67 212.26 803.012 209.576 803.012 206.531C803.012 203.447 803.65 200.703 804.926 198.299C806.242 195.896 808.036 194.033 810.309 192.711C812.622 191.349 815.334 190.668 818.444 190.668C821.355 190.668 823.927 191.309 826.16 192.591C828.393 193.873 830.128 195.635 831.364 197.879C832.64 200.082 833.278 202.545 833.278 205.269C833.278 205.71 833.258 206.171 833.218 206.651C833.218 207.036 833.206 207.434 833.18 207.845C833.169 208.019 833.023 208.154 832.849 208.154H810.967C810.773 208.154 810.619 208.318 810.638 208.51C810.852 210.664 811.64 212.368 813.001 213.622C814.476 214.944 816.251 215.604 818.325 215.604C819.88 215.604 821.176 215.264 822.212 214.583C823.227 213.904 823.993 213.046 824.512 212.012C824.571 211.895 824.689 211.819 824.819 211.819H831.933C832.157 211.819 832.317 212.034 832.247 212.246C831.678 213.963 830.786 215.543 829.57 216.986C828.294 218.509 826.699 219.711 824.785 220.592C822.91 221.473 820.777 221.914 818.384 221.914ZM818.444 196.917C816.57 196.917 814.915 197.458 813.479 198.539C812.132 199.517 811.242 200.988 810.807 202.954C810.763 203.157 810.921 203.347 811.13 203.347H825.147C825.34 203.347 825.493 203.184 825.474 202.993C825.293 201.195 824.585 199.751 823.349 198.66C822.033 197.498 820.398 196.917 818.444 196.917Z" fill="#9FA0A2"/>
<path d="M851.693 221.914C848.702 221.914 846.05 221.273 843.737 219.991C841.424 218.709 839.61 216.906 838.294 214.583C836.978 212.26 836.32 209.576 836.32 206.531C836.32 203.447 836.958 200.703 838.234 198.299C839.55 195.896 841.345 194.033 843.618 192.711C845.931 191.349 848.642 190.668 851.753 190.668C854.664 190.668 857.236 191.309 859.469 192.591C861.702 193.873 863.436 195.635 864.673 197.879C865.949 200.082 866.587 202.545 866.587 205.269C866.587 205.71 866.567 206.171 866.527 206.651C866.527 207.036 866.514 207.434 866.489 207.845C866.478 208.019 866.332 208.154 866.157 208.154H844.275C844.081 208.154 843.928 208.318 843.947 208.51C844.161 210.664 844.948 212.368 846.309 213.622C847.785 214.944 849.559 215.604 851.633 215.604C853.188 215.604 854.484 215.264 855.521 214.583C856.535 213.904 857.302 213.046 857.821 212.012C857.879 211.895 857.997 211.819 858.128 211.819H865.242C865.465 211.819 865.626 212.034 865.556 212.246C864.987 213.963 864.094 215.543 862.878 216.986C861.602 218.509 860.007 219.711 858.093 220.592C856.219 221.473 854.085 221.914 851.693 221.914ZM851.753 196.917C849.878 196.917 848.224 197.458 846.788 198.539C845.441 199.517 844.55 200.988 844.116 202.954C844.071 203.157 844.229 203.347 844.438 203.347H858.455C858.648 203.347 858.802 203.184 858.782 202.993C858.602 201.195 857.893 199.751 856.658 198.66C855.342 197.498 853.707 196.917 851.753 196.917Z" fill="#9FA0A2"/>
<path d="M887.311 221.067C890.158 221.067 892.466 218.749 892.466 215.889C892.466 213.029 890.158 210.711 887.311 210.711C884.464 210.711 882.156 213.029 882.156 215.889C882.156 218.749 884.464 221.067 887.311 221.067Z" fill="#9FA0A2"/>
<path d="M1120.68 182.305C1112.56 182.305 1105.95 188.94 1105.95 197.096C1105.95 205.252 1112.56 211.887 1120.68 211.887C1128.79 211.887 1135.4 205.252 1135.4 197.096C1135.4 188.94 1128.79 182.305 1120.68 182.305ZM1120.68 204.877C1116.41 204.877 1112.93 201.383 1112.93 197.096C1112.93 192.807 1116.41 189.315 1120.68 189.315C1124.94 189.315 1128.42 192.807 1128.42 197.096C1128.42 201.384 1124.95 204.877 1120.68 204.877ZM1077.32 194.1L1074.75 192.809C1073.63 192.253 1072.93 191.823 1072.65 191.505C1072.38 191.223 1072.22 190.851 1072.22 190.461C1072.22 189.962 1072.44 189.541 1072.88 189.214C1073.32 188.871 1073.94 188.715 1074.73 188.715C1076.18 188.715 1077.78 189.587 1079.54 191.345L1083.89 186.978C1082.82 185.524 1081.43 184.343 1079.82 183.531C1078.23 182.731 1076.47 182.319 1074.69 182.328C1072.04 182.328 1069.85 183.111 1068.14 184.687C1066.44 186.264 1065.58 188.159 1065.58 190.381C1065.58 193.828 1067.83 196.7 1072.36 198.979L1074.73 200.169C1076.78 201.204 1077.79 202.257 1077.79 203.346C1077.79 203.936 1077.51 204.447 1076.95 204.9C1076.38 205.355 1075.64 205.57 1074.71 205.57C1073.85 205.57 1072.87 205.275 1071.77 204.675C1070.66 204.085 1069.68 203.291 1068.87 202.337L1064.55 207.067C1066.99 210.266 1070.24 211.877 1074.33 211.877C1077.4 211.877 1079.85 211.037 1081.67 209.369C1083.49 207.703 1084.41 205.616 1084.41 203.119C1084.41 201.247 1083.9 199.604 1082.9 198.208C1081.88 196.812 1080.02 195.452 1077.32 194.102V194.1ZM1033.6 208.665V182.893H1026.62V184.619C1024.26 183.105 1021.52 182.302 1018.72 182.305C1010.6 182.305 1004 188.94 1004 197.096C1004 205.252 1010.6 211.887 1018.72 211.887C1021.49 211.891 1024.2 211.108 1026.54 209.63C1026.54 209.857 1026.52 210.061 1026.52 210.198C1026.52 214.484 1023.05 217.979 1018.78 217.979C1017.33 217.975 1015.91 217.562 1014.68 216.787L1011.23 222.867C1013.5 224.257 1016.12 224.995 1018.79 225C1026.91 225 1033.6 218.363 1033.6 210.207C1033.6 209.891 1033.63 208.96 1033.6 208.665ZM1018.72 204.875C1014.46 204.875 1010.98 201.383 1010.98 197.096C1010.98 192.807 1014.45 189.315 1018.72 189.315C1022.99 189.315 1026.47 192.807 1026.47 197.096C1026.47 201.383 1022.99 204.877 1018.72 204.877V204.875ZM1061.44 182.884H1054.42V196.945C1054.43 198.943 1054.43 202.392 1052.97 203.866C1052.27 204.568 1051.5 205.205 1049.88 205.205C1048.26 205.205 1047.49 204.568 1046.79 203.866C1045.32 202.39 1045.33 198.932 1045.34 196.945V182.884H1038.32V196.904C1038.3 199.794 1038.26 205.161 1041.79 208.722C1043.85 210.809 1046.32 211.875 1049.87 211.875C1053.43 211.875 1055.89 210.82 1057.96 208.722C1061.48 205.161 1061.44 199.783 1061.42 196.904L1061.44 182.884ZM1101.24 203.618C1100.68 204.049 1099.31 205.003 1097.77 204.787C1096.5 204.616 1095.47 203.687 1095.32 200.579V188.919H1103.57V182.861H1095.32V175H1088.32V176.543H1088.3V199.661C1088.3 203.336 1089.23 211.875 1097.75 211.875C1102.07 211.809 1104.69 209.461 1105.78 208.543L1105.93 208.429L1101.73 203.234C1101.72 203.243 1101.42 203.481 1101.24 203.618Z" fill="#9FA0A2"/>
<path d="M136.412 190.898C133.714 190.898 130.477 191.874 127.368 195.214C124.259 191.874 120.996 190.898 118.324 190.898C118.324 190.898 107.97 190.127 107.97 202.229V221.807H115.472V203.334C115.472 197.912 119.095 197.809 119.814 197.964C119.814 197.964 121.125 198.041 122.307 199.274C122.307 199.274 119.917 202.409 119.737 206.314C119.737 206.314 119.198 216.488 127.368 216.488C135.539 216.488 134.999 206.314 134.999 206.314C134.819 202.383 132.43 199.274 132.43 199.274C133.612 198.041 134.922 197.964 134.922 197.964C135.616 197.809 139.264 197.912 139.264 203.334V221.807H146.767V202.229C146.741 190.102 136.412 190.898 136.412 190.898ZM127.343 210.964C125.724 210.964 125.21 208.935 125.184 207.008C125.133 203.668 127.317 201.252 127.343 201.201C127.394 201.252 129.552 203.668 129.501 207.008C129.501 208.935 128.961 210.964 127.343 210.964ZM103.731 191.412H96.2281V221.833H103.731V191.412ZM99.9793 178.206C97.4871 178.206 95.4059 180.235 95.4059 182.702C95.4059 185.194 97.4614 187.275 99.9793 187.275C102.472 187.275 104.476 185.22 104.476 182.702C104.501 180.287 102.446 178.206 99.9793 178.206ZM72.4619 193.442V178H65.0108V221.807H72.4619V199.865C84.7946 193.878 84.3321 203.359 84.3321 203.359V221.807H91.7832V203.385C91.7832 185.554 76.2131 191.438 72.4619 193.442ZM157.07 208.087C161.078 209.5 166.139 209.371 166.139 209.371C178.164 209.294 177.83 200.559 177.83 200.559C177.521 190.718 165.959 190.898 165.959 190.898C156.376 190.898 149.67 197.475 149.67 206.853C149.67 216.257 156.247 222.321 166.396 222.321C170.713 222.321 174.824 221.139 177.701 219.032V211.787C174.695 214.382 171.098 215.769 167.27 215.769C167.296 215.769 156.864 216.283 157.07 208.087ZM157.995 201.689C159.254 198.503 161.874 196.833 165.6 196.833C168.657 196.833 170.43 198.118 170.43 200.173C170.43 203.051 167.193 203.308 164.161 203.308C161.181 203.308 159.331 202.974 158.508 202.768L157.712 202.588L157.995 201.689ZM49.6206 222.321C54.9134 222.321 58.6389 220.317 60.8742 218.647V211.35C57.5855 213.945 53.7315 215.435 50.3143 215.435C44.8417 215.435 41.0134 211.658 41.0134 206.237C41.0134 201.098 44.5077 197.501 49.4921 197.501C51.1108 197.501 52.5239 197.912 54.0142 198.323C55.5557 198.76 57.1487 199.248 59.0757 199.248C59.6667 199.248 60.2576 199.197 60.8742 199.12V192.183C60.3604 192.234 59.8979 192.285 59.384 192.285C57.6626 192.285 56.0953 191.951 54.4766 191.617C52.7552 191.258 50.9824 190.872 48.9012 190.872C44.7389 190.872 40.8849 192.337 38.0587 195.06C35.0526 197.938 33.4339 201.92 33.4339 206.597C33.3825 215.846 40.0627 222.321 49.6206 222.321ZM186.694 194.624C186.694 194.161 186.617 193.75 186.463 193.365C186.309 192.979 186.103 192.645 185.846 192.388C185.589 192.106 185.281 191.9 184.947 191.746C184.587 191.592 184.227 191.515 183.816 191.515C183.405 191.515 183.02 191.592 182.686 191.746C182.326 191.9 182.043 192.106 181.786 192.388C181.53 192.671 181.324 192.979 181.17 193.365C181.016 193.75 180.939 194.161 180.939 194.624C180.939 195.06 181.016 195.446 181.144 195.831C181.273 196.216 181.478 196.525 181.709 196.807C181.966 197.09 182.275 197.321 182.609 197.475C182.968 197.63 183.354 197.707 183.816 197.707C184.227 197.707 184.587 197.63 184.947 197.475C185.306 197.321 185.589 197.116 185.846 196.833C186.103 196.55 186.309 196.242 186.463 195.857C186.617 195.497 186.694 195.086 186.694 194.624ZM187.49 194.624C187.49 195.189 187.388 195.703 187.182 196.165C186.977 196.628 186.72 197.013 186.386 197.347C186.052 197.681 185.666 197.938 185.204 198.118C184.767 198.298 184.304 198.4 183.816 198.4C183.277 198.4 182.789 198.298 182.326 198.118C181.889 197.912 181.504 197.655 181.17 197.321C180.862 196.987 180.605 196.602 180.399 196.139C180.219 195.677 180.116 195.189 180.116 194.649C180.116 194.084 180.219 193.57 180.399 193.108C180.605 192.645 180.862 192.26 181.196 191.926C181.53 191.592 181.941 191.335 182.377 191.155C182.814 190.975 183.302 190.872 183.791 190.872C184.279 190.872 184.741 190.975 185.178 191.155C185.615 191.335 186.026 191.592 186.36 191.926C186.694 192.26 186.977 192.645 187.156 193.108C187.388 193.544 187.49 194.058 187.49 194.624ZM183.842 194.418C183.97 194.418 184.099 194.418 184.202 194.418C184.33 194.392 184.433 194.367 184.51 194.315C184.587 194.264 184.664 194.212 184.716 194.135C184.767 194.058 184.793 193.93 184.793 193.776C184.793 193.647 184.767 193.544 184.69 193.467C184.638 193.39 184.561 193.339 184.484 193.287C184.407 193.236 184.304 193.236 184.202 193.21C184.099 193.185 183.996 193.185 183.893 193.185H183.071V194.392H183.842V194.418ZM183.071 196.756H182.403V192.619H183.97C184.459 192.619 184.844 192.722 185.101 192.902C185.358 193.082 185.486 193.39 185.486 193.801C185.486 194.187 185.384 194.444 185.178 194.624C184.972 194.803 184.716 194.906 184.407 194.932L185.563 196.756H184.793L183.713 194.983H183.071V196.756ZM184.921 191.823C184.587 191.669 184.227 191.592 183.816 191.592C183.405 191.592 183.045 191.669 182.711 191.823C182.377 191.977 182.069 192.183 181.812 192.44C181.555 192.697 181.35 193.031 181.221 193.39C181.067 193.75 181.016 194.161 181.016 194.624C181.016 195.035 181.093 195.446 181.221 195.805C181.35 196.165 181.53 196.499 181.786 196.756C182.043 197.039 182.326 197.244 182.686 197.398C183.02 197.553 183.431 197.63 183.868 197.63C184.253 197.63 184.613 197.553 184.972 197.424C185.306 197.27 185.615 197.064 185.872 196.807C186.129 196.55 186.334 196.216 186.463 195.857C186.617 195.497 186.668 195.086 186.668 194.624C186.668 194.187 186.591 193.776 186.463 193.39C186.309 193.005 186.129 192.697 185.872 192.44C185.538 192.157 185.255 191.951 184.921 191.823ZM184.947 197.501C184.587 197.655 184.227 197.732 183.816 197.732C183.379 197.732 182.968 197.655 182.609 197.501C182.249 197.347 181.941 197.116 181.709 196.833C181.452 196.55 181.273 196.216 181.144 195.857C181.016 195.471 180.939 195.086 180.939 194.649C180.939 194.187 181.016 193.776 181.17 193.39C181.324 193.005 181.53 192.671 181.786 192.414C182.043 192.131 182.352 191.926 182.686 191.772C183.045 191.617 183.431 191.54 183.816 191.54C184.227 191.54 184.587 191.617 184.947 191.772C185.306 191.926 185.589 192.131 185.846 192.414C186.103 192.697 186.309 193.005 186.463 193.39C186.617 193.776 186.694 194.187 186.694 194.649C186.694 195.112 186.617 195.523 186.463 195.908C186.309 196.294 186.103 196.602 185.846 196.885C185.589 197.116 185.281 197.347 184.947 197.501ZM182.3 198.143C181.838 197.938 181.452 197.681 181.118 197.347C180.784 197.013 180.528 196.602 180.348 196.139C180.168 195.677 180.065 195.163 180.065 194.624C180.065 194.058 180.168 193.544 180.373 193.056C180.579 192.594 180.862 192.183 181.196 191.849C181.555 191.515 181.941 191.258 182.403 191.078C182.866 190.898 183.328 190.795 183.842 190.795C184.33 190.795 184.818 190.898 185.255 191.078C185.718 191.258 186.103 191.515 186.437 191.849C186.797 192.183 187.054 192.594 187.259 193.056C187.465 193.519 187.567 194.058 187.567 194.624C187.567 195.189 187.465 195.703 187.259 196.191C187.054 196.653 186.797 197.064 186.437 197.398C186.103 197.732 185.692 197.989 185.255 198.169C184.818 198.349 184.33 198.452 183.842 198.452C183.277 198.426 182.763 198.323 182.3 198.143ZM185.204 198.092C185.64 197.912 186.052 197.655 186.386 197.321C186.72 196.987 187.002 196.602 187.182 196.139C187.388 195.677 187.49 195.163 187.49 194.598C187.49 194.033 187.388 193.519 187.182 193.056C186.977 192.594 186.72 192.208 186.386 191.874C186.052 191.54 185.666 191.283 185.204 191.104C184.767 190.924 184.304 190.821 183.816 190.821C183.328 190.821 182.84 190.924 182.403 191.104C181.966 191.283 181.555 191.54 181.221 191.874C180.887 192.208 180.63 192.594 180.425 193.056C180.219 193.519 180.142 194.033 180.142 194.598C180.142 195.137 180.245 195.626 180.425 196.088C180.605 196.551 180.862 196.936 181.196 197.27C181.53 197.604 181.915 197.861 182.352 198.066C182.814 198.246 183.302 198.349 183.842 198.349C184.304 198.349 184.767 198.272 185.204 198.092ZM184.664 193.493C184.613 193.416 184.561 193.39 184.484 193.339C184.407 193.313 184.33 193.287 184.227 193.287C184.125 193.262 184.022 193.262 183.919 193.262H183.174V194.341H183.868C183.996 194.341 184.099 194.341 184.227 194.341C184.33 194.341 184.433 194.289 184.51 194.264C184.587 194.212 184.638 194.161 184.69 194.11C184.741 194.033 184.767 193.93 184.767 193.776C184.741 193.647 184.716 193.544 184.664 193.493ZM184.716 194.11C184.664 194.187 184.587 194.264 184.51 194.289C184.433 194.341 184.33 194.367 184.202 194.392C184.099 194.392 183.97 194.392 183.842 194.392H183.071V193.185H183.893C183.996 193.185 184.099 193.185 184.202 193.21C184.304 193.21 184.407 193.236 184.484 193.287C184.561 193.339 184.638 193.39 184.69 193.467C184.741 193.544 184.793 193.647 184.793 193.776C184.793 193.904 184.767 194.033 184.716 194.11ZM183.148 196.833H182.326V192.542H183.97C184.484 192.542 184.87 192.645 185.152 192.825C185.435 193.031 185.563 193.365 185.563 193.801C185.563 194.187 185.461 194.495 185.229 194.675C185.024 194.829 184.793 194.932 184.536 194.983L185.718 196.833H184.793L183.713 195.06H183.174V196.833H183.148ZM183.071 194.983H183.713L184.793 196.756H185.563L184.407 194.932C184.433 194.932 184.459 194.932 184.484 194.932C184.767 194.88 184.998 194.778 185.178 194.624C185.384 194.444 185.486 194.187 185.486 193.801C185.486 193.39 185.358 193.082 185.101 192.902C184.844 192.722 184.459 192.619 183.97 192.619H182.403V196.756H183.071V194.983Z" fill="#9FA0A2"/>
<path fill-rule="evenodd" clip-rule="evenodd" d="M177.001 60.5925C177.001 51.1347 172.419 43.6719 163.664 43.6719C154.871 43.6719 149.551 51.1347 149.551 60.5186C149.551 71.6389 155.831 77.2544 164.846 77.2544C169.242 77.2544 172.567 76.2569 175.079 74.8531V67.4641C172.567 68.7203 169.686 69.4961 166.028 69.4961C162.444 69.4961 159.267 68.24 158.861 63.8805H176.927C176.927 63.4003 177.001 61.4791 177.001 60.5925ZM158.75 57.0827C158.75 52.908 161.299 51.1716 163.627 51.1716C165.88 51.1716 168.282 52.908 168.282 57.0827H158.75Z" fill="#9FA0A2"/>
<path fill-rule="evenodd" clip-rule="evenodd" d="M135.291 43.6719C131.67 43.6719 129.343 45.3713 128.049 46.5535L127.569 44.263H119.441V87.3403L128.678 85.3822L128.714 74.9269C130.044 75.8875 132.003 77.2544 135.254 77.2544C141.867 77.2544 147.889 71.9344 147.889 60.223C147.852 49.5091 141.756 43.6719 135.291 43.6719ZM133.074 69.1266C130.894 69.1266 129.601 68.3508 128.714 67.3903L128.678 53.6838C129.638 52.6124 130.968 51.8736 133.074 51.8736C136.436 51.8736 138.763 55.6419 138.763 60.4816C138.763 65.4322 136.473 69.1266 133.074 69.1266Z" fill="#9FA0A2"/>
<path fill-rule="evenodd" clip-rule="evenodd" d="M106.73 41.4947L116.004 39.4997V32L106.73 33.9581V41.4947Z" fill="#9FA0A2"/>
<path d="M116.004 44.3047H106.73V76.6311H116.004V44.3047Z" fill="#9FA0A2"/>
<path fill-rule="evenodd" clip-rule="evenodd" d="M96.7938 47.0376L96.2027 44.3038H88.2227V76.6302H97.4588V54.7221C99.6385 51.8774 103.333 52.3946 104.478 52.801V44.3038C103.296 43.8604 98.9735 43.0476 96.7938 47.0376Z" fill="#9FA0A2"/>
<path fill-rule="evenodd" clip-rule="evenodd" d="M78.3209 36.2852L69.3065 38.2063L69.2695 67.7988C69.2695 73.2666 73.3704 77.2936 78.8382 77.2936C81.8676 77.2936 84.0843 76.7394 85.3035 76.0744V68.5747C84.1212 69.055 78.284 70.7544 78.284 65.2866V52.1713H85.3035V44.3021H78.284L78.3209 36.2852Z" fill="#9FA0A2"/>
<path fill-rule="evenodd" clip-rule="evenodd" d="M53.347 53.6838C53.347 52.243 54.5292 51.6888 56.4873 51.6888C59.295 51.6888 62.8417 52.5386 65.6495 54.0533V45.3713C62.5831 44.1522 59.5536 43.6719 56.4873 43.6719C48.9875 43.6719 44 47.588 44 54.1272C44 64.3239 58.0389 62.6983 58.0389 67.0947C58.0389 68.7942 56.5611 69.3483 54.4922 69.3483C51.4258 69.3483 47.5097 68.0922 44.4064 66.3928V75.1856C47.8422 76.6633 51.315 77.2914 54.4922 77.2914C62.1767 77.2914 67.4598 73.4861 67.4598 66.873C67.4228 55.8636 53.347 57.8216 53.347 53.6838Z" fill="#9FA0A2"/>
</svg>
